# xmcd
#
# Track frame offsets:
#	150
#	16058
#	36302
#	64072
#	91936
#	104559
#	136135
#	163252
#	177315
#	204841
#	223082
#	255538
#
# Disc length: 3780 seconds
#
# Revision: 0
# Processed by: cddbd v1.5.2PL0 Copyright (c) Steve Scherf et al.
# Submitted via: dBpowerAMP V4.0
#
DISCID=a40ec20c
DTITLE=The Dissenters - Smokin' In Public
DYEAR=2007
DGENRE=Americana
TTITLE0=Mexicali
TTITLE1=Back On The Train
TTITLE2=Stealin' All Day
TTITLE3=Feel Good About Yourself
TTITLE4=The River Road
TTITLE5=Mississippi Mud
TTITLE6=Dirty Water
TTITLE7=Razor Sharp Men
TTITLE8=Ain't Going Back
TTITLE9=Ain't Talking To You
TTITLE10=Just A Little Bit
TTITLE11=Adios Amigos
EXTD=
EXTT0=
EXTT1=
EXTT2=
EXTT3=
EXTT4=
EXTT5=
EXTT6=
EXTT7=
EXTT8=
EXTT9=
EXTT10=
EXTT11=
PLAYORDER=
